<svg width="189" height="255" viewBox="0 0 189 255" fill="none" xmlns="http://www.w3.org/2000/svg">
<g id="circles" clip-path="url(#clip0)">
<rect width="189" height="255" fill="white"/>
<g id="circle5">
<g id="Ellipse 13" filter="url(#filter0_d)">
<path d="M136.497 91.4012C119.073 99.7716 98.3569 92.836 90.2257 75.9101C82.0945 58.9843 89.6276 38.4776 107.051 30.1073C124.475 21.7369 145.191 28.6725 153.322 45.5984C161.454 62.5242 153.921 83.0309 136.497 91.4012Z" fill="#DEEEF0"/>
</g>
<g id="Ellipse 13 (Stroke)" filter="url(#filter1_d)">
<path fill-rule="evenodd" clip-rule="evenodd" d="M88.2261 66.8224C95.795 82.5777 115.051 88.9932 131.205 81.2327C147.359 73.4723 154.385 54.431 146.816 38.6757C139.247 22.9204 119.992 16.505 103.837 24.2654C87.6834 32.0258 80.6573 51.0671 88.2261 66.8224ZM85.9727 67.9049C94.1039 84.8308 114.82 91.7664 132.244 83.396C149.668 75.0257 157.201 54.519 149.069 37.5932C140.938 20.6673 120.222 13.7317 102.798 22.1021C85.3745 30.4724 77.8415 50.9791 85.9727 67.9049Z" fill="#147D8D"/>
</g>
</g>
<g id="circle1">
<g id="Ellipse 2" filter="url(#filter2_d)">
<path d="M87.1251 237.543C72.6884 244.478 55.1689 237.993 47.9943 223.059C40.8197 208.124 46.7069 190.395 61.1436 183.46C75.5804 176.524 93.0999 183.009 100.274 197.943C107.449 212.878 101.562 230.607 87.1251 237.543Z" fill="#17A2B8"/>
</g>
<g id="Ellipse 2 (Stroke)" filter="url(#filter3_d)">
<path fill-rule="evenodd" clip-rule="evenodd" d="M45.9996 219.128C52.6484 232.968 68.7529 238.781 81.8365 232.495C94.9202 226.21 100.447 210.005 93.7986 196.165C87.1498 182.325 71.0453 176.512 57.9616 182.797C44.878 189.083 39.3508 205.288 45.9996 219.128ZM43.759 220.204C50.9336 235.139 68.4531 241.623 82.8898 234.688C97.3266 227.752 103.214 210.023 96.0392 195.089C88.8646 180.154 71.3451 173.669 56.9083 180.605C42.4716 187.54 36.5844 205.269 43.759 220.204Z" fill="#508189"/>
</g>
</g>
<g id="circle7" filter="url(#filter4_d)">
<path d="M165.473 244.938C151.036 251.874 133.807 245.994 126.991 231.806C120.176 217.619 126.353 200.495 140.79 193.559C155.227 186.624 172.456 192.503 179.272 206.691C186.087 220.879 179.909 238.003 165.473 244.938Z" fill="#27435F"/>
</g>
<g id="circle6" filter="url(#filter5_d)">
<path d="M157.819 163.19C150.601 166.658 142.035 163.819 138.687 156.85C135.339 149.881 138.476 141.419 145.694 137.952C152.913 134.484 161.479 137.323 164.827 144.292C168.175 151.262 165.037 159.723 157.819 163.19Z" fill="#147D8D"/>
</g>
<path id="circle3" d="M46.1619 124.75C38.9435 128.218 30.3777 125.379 27.0295 118.409C23.6814 111.44 26.8188 102.979 34.0372 99.5112C41.2556 96.0435 49.8214 98.8822 53.1696 105.852C56.5177 112.821 53.3803 121.282 46.1619 124.75Z" fill="#0F2F4E"/>
<g id="circle2" filter="url(#filter6_d)">
<path fill-rule="evenodd" clip-rule="evenodd" d="M73.5822 144.859C78.9985 156.134 92.6733 160.739 104.085 155.257C115.496 149.775 120.447 136.222 115.031 124.947C109.615 113.673 95.9398 109.068 84.5286 114.55C73.1173 120.032 68.1658 133.585 73.5822 144.859ZM71.3213 145.946C77.3002 158.391 92.4378 163.536 105.132 157.438C117.827 151.34 123.271 136.307 117.292 123.861C111.313 111.416 96.1753 106.27 83.4809 112.369C70.7866 118.467 65.3425 133.5 71.3213 145.946Z" fill="#7DBEC9"/>
</g>
<g id="circle4" filter="url(#filter7_d)">
<path d="M43.7668 60.8297C42.8536 53.091 48.5301 45.9385 56.4457 44.8542C64.3613 43.7698 71.5185 49.1642 72.4317 56.9029C73.3449 64.6416 67.6684 71.7941 59.7528 72.8785C51.8372 73.9628 44.68 68.5684 43.7668 60.8297Z" fill="#17A2B8"/>
</g>
</g>
<defs>
<filter id="filter0_d" x="71.5029" y="14.9514" width="100.542" height="99.6057" filterUnits="userSpaceOnUse" color-interpolation-filters="sRGB">
<feFlood flood-opacity="0" result="BackgroundImageFix"/>
<feColorMatrix in="SourceAlpha" type="matrix" values="0 0 0 0 0 0 0 0 0 0 0 0 0 0 0 0 0 0 127 0"/>
<feOffset dy="4"/>
<feGaussianBlur stdDeviation="2"/>
<feColorMatrix type="matrix" values="0 0 0 0 0 0 0 0 0 0 0 0 0 0 0 0 0 0 0.25 0"/>
<feBlend mode="normal" in2="BackgroundImageFix" result="effect1_dropShadow"/>
<feBlend mode="normal" in="SourceGraphic" in2="effect1_dropShadow" result="shape"/>
</filter>
<filter id="filter1_d" x="67.2498" y="6.9462" width="100.542" height="99.6057" filterUnits="userSpaceOnUse" color-interpolation-filters="sRGB">
<feFlood flood-opacity="0" result="BackgroundImageFix"/>
<feColorMatrix in="SourceAlpha" type="matrix" values="0 0 0 0 0 0 0 0 0 0 0 0 0 0 0 0 0 0 127 0"/>
<feOffset dy="4"/>
<feGaussianBlur stdDeviation="2"/>
<feColorMatrix type="matrix" values="0 0 0 0 0 0 0 0 0 0 0 0 0 0 0 0 0 0 0.25 0"/>
<feBlend mode="normal" in2="BackgroundImageFix" result="effect1_dropShadow"/>
<feBlend mode="normal" in="SourceGraphic" in2="effect1_dropShadow" result="shape"/>
</filter>
<filter id="filter2_d" x="31.0035" y="170.902" width="86.2617" height="87.1984" filterUnits="userSpaceOnUse" color-interpolation-filters="sRGB">
<feFlood flood-opacity="0" result="BackgroundImageFix"/>
<feColorMatrix in="SourceAlpha" type="matrix" values="0 0 0 0 0 0 0 0 0 0 0 0 0 0 0 0 0 0 127 0"/>
<feOffset dy="4"/>
<feGaussianBlur stdDeviation="2"/>
<feColorMatrix type="matrix" values="0 0 0 0 0 0 0 0 0 0 0 0 0 0 0 0 0 0 0.25 0"/>
<feBlend mode="normal" in2="BackgroundImageFix" result="effect1_dropShadow"/>
<feBlend mode="normal" in="SourceGraphic" in2="effect1_dropShadow" result="shape"/>
</filter>
<filter id="filter3_d" x="26.7682" y="168.047" width="86.2617" height="87.1984" filterUnits="userSpaceOnUse" color-interpolation-filters="sRGB">
<feFlood flood-opacity="0" result="BackgroundImageFix"/>
<feColorMatrix in="SourceAlpha" type="matrix" values="0 0 0 0 0 0 0 0 0 0 0 0 0 0 0 0 0 0 127 0"/>
<feOffset dy="4"/>
<feGaussianBlur stdDeviation="2"/>
<feColorMatrix type="matrix" values="0 0 0 0 0 0 0 0 0 0 0 0 0 0 0 0 0 0 0.25 0"/>
<feBlend mode="normal" in2="BackgroundImageFix" result="effect1_dropShadow"/>
<feBlend mode="normal" in="SourceGraphic" in2="effect1_dropShadow" result="shape"/>
</filter>
<filter id="filter4_d" x="110.65" y="181.002" width="84.9626" height="84.4942" filterUnits="userSpaceOnUse" color-interpolation-filters="sRGB">
<feFlood flood-opacity="0" result="BackgroundImageFix"/>
<feColorMatrix in="SourceAlpha" type="matrix" values="0 0 0 0 0 0 0 0 0 0 0 0 0 0 0 0 0 0 127 0"/>
<feOffset dy="4"/>
<feGaussianBlur stdDeviation="2"/>
<feColorMatrix type="matrix" values="0 0 0 0 0 0 0 0 0 0 0 0 0 0 0 0 0 0 0.25 0"/>
<feBlend mode="normal" in2="BackgroundImageFix" result="effect1_dropShadow"/>
<feBlend mode="normal" in="SourceGraphic" in2="effect1_dropShadow" result="shape"/>
</filter>
<filter id="filter5_d" x="128.624" y="131.673" width="46.2648" height="45.7964" filterUnits="userSpaceOnUse" color-interpolation-filters="sRGB">
<feFlood flood-opacity="0" result="BackgroundImageFix"/>
<feColorMatrix in="SourceAlpha" type="matrix" values="0 0 0 0 0 0 0 0 0 0 0 0 0 0 0 0 0 0 127 0"/>
<feOffset dy="4"/>
<feGaussianBlur stdDeviation="2"/>
<feColorMatrix type="matrix" values="0 0 0 0 0 0 0 0 0 0 0 0 0 0 0 0 0 0 0.25 0"/>
<feBlend mode="normal" in2="BackgroundImageFix" result="effect1_dropShadow"/>
<feBlend mode="normal" in="SourceGraphic" in2="effect1_dropShadow" result="shape"/>
</filter>
<filter id="filter6_d" x="56.4957" y="101.327" width="75.6217" height="75.1534" filterUnits="userSpaceOnUse" color-interpolation-filters="sRGB">
<feFlood flood-opacity="0" result="BackgroundImageFix"/>
<feColorMatrix in="SourceAlpha" type="matrix" values="0 0 0 0 0 0 0 0 0 0 0 0 0 0 0 0 0 0 127 0"/>
<feOffset dy="4"/>
<feGaussianBlur stdDeviation="2"/>
<feColorMatrix type="matrix" values="0 0 0 0 0 0 0 0 0 0 0 0 0 0 0 0 0 0 0.25 0"/>
<feBlend mode="normal" in2="BackgroundImageFix" result="effect1_dropShadow"/>
<feBlend mode="normal" in="SourceGraphic" in2="effect1_dropShadow" result="shape"/>
</filter>
<filter id="filter7_d" x="39.6703" y="44.7155" width="36.8578" height="36.3016" filterUnits="userSpaceOnUse" color-interpolation-filters="sRGB">
<feFlood flood-opacity="0" result="BackgroundImageFix"/>
<feColorMatrix in="SourceAlpha" type="matrix" values="0 0 0 0 0 0 0 0 0 0 0 0 0 0 0 0 0 0 127 0"/>
<feOffset dy="4"/>
<feGaussianBlur stdDeviation="2"/>
<feColorMatrix type="matrix" values="0 0 0 0 0 0 0 0 0 0 0 0 0 0 0 0 0 0 0.25 0"/>
<feBlend mode="normal" in2="BackgroundImageFix" result="effect1_dropShadow"/>
<feBlend mode="normal" in="SourceGraphic" in2="effect1_dropShadow" result="shape"/>
</filter>
<clipPath id="clip0">
<rect width="189" height="255" fill="white"/>
</clipPath>
</defs>
</svg>
